<svg xmlns="http://www.w3.org/2000/svg" width="5120" height="5120" viewBox="0 0 5120 5120">
  <defs>
    <style>
      .cls-1 {
        fill: #0174e1;
      }

      .cls-1, .cls-2, .cls-3, .cls-4 {
        fill-rule: evenodd;
      }

      .cls-2 {
        fill: none;
      }

      .cls-3 {
        stroke: #000;
        stroke-width: 1px;
      }
    </style>
  </defs>
  <path class="cls-1" d="M2977,3196v510s4.63,51.51-45,47c0,0-34.89,5.86-56.87-22.5-0.38-.49-0.76-0.99-1.13-1.5-21.89-30.06-227-322-227-322s-14.73-16.34-15,9l-1,311s-1.39,18.74-28,20l-63-1s-19.66-.97-20-36V3180s-1.43-30.59,31-31l31-1s21.45-2.45,39,21l231,324s15.63,22.69,15-2l-1-301s-1.58-35.88,22-37l61-1S2979.52,3150.58,2977,3196Z"/>
  <path class="cls-1" d="M2584,1881c5.03,7.94,30.23,37.35-14,35h-81s-21.6.63-32-11l-152-219s-16.62-27.75-33-21c0,0-14.12-.46-14,33s0,200,0,200,0.99,19.45-24,19l-72-1s-20.28,1.69-22-30V1354s1.91-34.71,29-34l70,1s17.67-1.5,18,22v213s5.14,25.02,27,13l153-230s8.3-16.79,35-18l88-1s20.35,0.85,8,20l-162,234s-20.65,25.88,5,62Z"/>
  <path class="cls-1" d="M2039,1349v545s0.69,26.7-25,27l-46-2s-17.33-1.23-39-32l-207-292s-26.68-30.38-27,4l-2,287s1.86,29.18-27,29l-62,1s-20.31,1.62-22-38l1-542s1.85-20.95,28-21l39,1s17.78-4.98,35,21l219,315s25.09,35.49,24,1V1347s-0.38-22.57,22-25l66-1S2039,1322.57,2039,1349Z"/>
  <path class="cls-1" d="M1470,1360l-1,527s4.85,29.43-37,29h-55s-25.34,3.73-26-48l1-511s-1.43-33.31,29-34C1381,1323,1469.08,1305.08,1470,1360Z"/>
  <path class="cls-1" d="M1246,1916l-303-1s-38.811,9.19-40-44l1-519s-3.769-31.46,31-32l59,2s25.88-2.88,27,29v423s-1.99,36.72,27,38l202,1s32.15-4.35,30,40l-2,43S1280.23,1917.01,1246,1916Z"/>
  <path class="cls-1" d="M3196,3682l-1-163s0.35-14.86,18-13,174,1,174,1,27.06-.9,26-27l-1-57s0.93-22.99-28-22H3211s-14.94,1.42-16-23V3278s-2.12-21.88,24-22h185s28.66,0.93,28-23l-1-56s0.39-24.9-21-25H3108s-30.08-1.73-30,27l-1,521s-1.97,41.01,19,43c0,0,56.83,5.28,82,0C3178,3743,3196.58,3743.1,3196,3682Z"/>
  <path class="cls-2" d="M3231,3738"/>
  <path class="cls-1" d="M3800,3652l68-13s17.88-7.61,25,7c0,0,8.61,22.05,12,43a38.4,38.4,0,0,1-14,41s-54.51,30.42-145,26c0,0-112.46,5.92-187-80,0,0-40.17-54.32-49-91,0,0-19.81-57.34-20-144,0,0,2.8-101.1,35-162s67.93-89.69,109-112c0,0,41.65-21.81,98-24,0,0,90.6-4.46,113,4,0,0,30.84,3.96,41,13,0,0,16.43,8.61,11,42l-9,31s-6.75,15.61-36,15l-78-4s-45.83-.33-72,14c0,0-46.25,19.69-67,70s-21.49,86.76-22,113,6.34,115.23,40,153C3653,3594,3714.33,3667.35,3800,3652Z"/>
  <path class="cls-3" d="M2515,2826l-447,2s-77.14-11.16-100,62c0,0-32.32,92.19,60,131,0,0-8.8,3.43,467,3s1615,4,1615,4,152.39,3.46,257-27c0,0,205.94-81.57,67-287,0,0,12.71,5.31-281-282L2486,763s-110.02-110.788-122-119c0,0-48.09-48.883-110-21,0,0-53.47,17.11-61,78,0,0-4.23,45.45,27,81,0,0,462.13,465.1,492,495L4108,2673s112.94,110.69-7,152Z"/>
  <path class="cls-3" d="M-692,2748"/>
  <path class="cls-4" d="M3066,2107s117.3-5.3,90,138c0,0-6.84,66.93-156,62l-551-1-1361,1s-91.794-21.28-99,84c0,0-4.309,58.59,86,135L2883,4333s63.41,67.5,12,140c0,0-89.9,84.71-193-43L856,2585s-156.96-150.82-105-297c0,0,61.808-177.45,221-176Z"/>
</svg>
